<?xml version="1.0" standalone="no"?>
<!DOCTYPE svg PUBLIC "-//W3C//DTD SVG 20010904//EN"
 "http://www.w3.org/TR/2001/REC-SVG-20010904/DTD/svg10.dtd">
<svg version="1.0" xmlns="http://www.w3.org/2000/svg"
 width="260.000000pt" height="260.000000pt" viewBox="0 0 260.000000 260.000000"
 preserveAspectRatio="xMidYMid meet">
<metadata>
Created by potrace 1.11, written by Peter Selinger 2001-2013
</metadata>
<g transform="translate(0.000000,260.000000) scale(0.100000,-0.100000)"
fill="#000000" stroke="none">
<path d="M0 1300 l0 -1300 1300 0 1300 0 0 1300 0 1300 -1300 0 -1300 0 0
-1300z m1373 1054 c63 -7 72 -23 20 -38 l-30 -9 -13 -121 c-7 -67 -20 -167
-30 -224 l-17 -103 491 1 c270 1 498 -1 506 -4 8 -3 28 -10 44 -16 22 -8 26
-13 17 -24 -6 -8 -16 -78 -21 -157 -35 -506 -100 -886 -180 -1054 -57 -118
-149 -190 -279 -216 -90 -17 -312 -3 -557 37 l-42 6 -4 82 c-2 44 -4 82 -4 82
1 1 51 -6 112 -16 160 -26 350 -43 412 -37 127 13 189 104 245 357 40 178 66
382 92 718 l6 82 -439 0 -440 0 -12 -52 c-7 -29 -32 -110 -56 -179 -116 -341
-265 -589 -489 -815 -106 -108 -312 -274 -338 -274 -8 0 -157 90 -157 96 0 1
44 33 97 70 117 83 292 249 379 359 156 201 269 431 348 712 l23 83 -376 2
-376 3 -3 78 -3 77 400 0 399 0 11 63 c11 68 37 272 47 380 l6 69 76 -7 c43
-3 103 -8 135 -11z"/>
</g>
</svg>
